# https://github.com/mikedh/trimesh
mtllib material.mtl
usemtl material_0
v -0.29497896 -0.10542617 -0.50000000
v -0.29497896 0.10542603 -0.50000000
v 0.29497896 0.10542603 -0.50000000
v 0.29497896 -0.10542617 -0.50000000
v -0.29497896 -0.10542603 0.50000000
v 0.29497896 -0.10542603 0.50000000
v 0.29497896 0.10542617 0.50000000
v -0.29497896 0.10542617 0.50000000
v -0.29497896 -0.10542617 -0.50000000
v 0.29497896 -0.10542617 -0.50000000
v 0.29497896 -0.10542603 0.50000000
v -0.29497896 -0.10542603 0.50000000
v 0.29497896 -0.10542617 -0.50000000
v 0.29497896 0.10542603 -0.50000000
v 0.29497896 0.10542617 0.50000000
v 0.29497896 -0.10542603 0.50000000
v 0.29497896 0.10542603 -0.50000000
v -0.29497896 0.10542603 -0.50000000
v -0.29497896 0.10542617 0.50000000
v 0.29497896 0.10542617 0.50000000
v -0.29497896 0.10542603 -0.50000000
v -0.29497896 -0.10542617 -0.50000000
v -0.29497896 -0.10542603 0.50000000
v -0.29497896 0.10542617 0.50000000
vn 0.00000000 0.00000000 -1.00000000
vn 0.00000000 0.00000000 -1.00000000
vn 0.00000000 0.00000000 -1.00000000
vn 0.00000000 0.00000000 -1.00000000
vn 0.00000000 0.00000000 1.00000000
vn 0.00000000 0.00000000 1.00000000
vn 0.00000000 0.00000000 1.00000000
vn 0.00000000 0.00000000 1.00000000
vn 0.00000000 -1.00000000 0.00000000
vn 0.00000000 -1.00000000 0.00000000
vn 0.00000000 -1.00000000 0.00000000
vn 0.00000000 -1.00000000 0.00000000
vn 1.00000000 0.00000000 0.00000000
vn 1.00000000 0.00000000 0.00000000
vn 1.00000000 0.00000000 0.00000000
vn 1.00000000 0.00000000 0.00000000
vn 0.00000000 1.00000000 0.00000000
vn 0.00000000 1.00000000 0.00000000
vn 0.00000000 1.00000000 0.00000000
vn 0.00000000 1.00000000 0.00000000
vn -1.00000000 0.00000000 0.00000000
vn -1.00000000 0.00000000 0.00000000
vn -1.00000000 0.00000000 0.00000000
vn -1.00000000 0.00000000 0.00000000
vt 0.50223700 0.85138800
vt 0.50223700 0.99442100
vt 0.86433500 0.99442100
vt 0.86433500 0.85138800
vt 0.86720900 0.00206800
vt 0.49838100 0.00206800
vt 0.49838100 0.14235100
vt 0.86720900 0.14235100
vt 0.50381100 0.84583000
vt 0.86800200 0.84583000
vt 0.86800200 0.14440700
vt 0.50381100 0.14440700
vt 0.87265400 0.84604400
vt 0.99608900 0.84604400
vt 0.99608900 0.14536100
vt 0.87265400 0.14536100
vt 0.00515300 0.84449000
vt 0.36791700 0.84449000
vt 0.36791700 0.14301100
vt 0.00515300 0.14301100
vt 0.36958500 0.84606700
vt 0.49680900 0.84606700
vt 0.49680900 0.14543400
vt 0.36958500 0.14543400
f 1/1/1 2/2/2 3/3/3
f 1/1/1 3/3/3 4/4/4
f 5/5/5 6/6/6 7/7/7
f 5/5/5 7/7/7 8/8/8
f 9/9/9 10/10/10 11/11/11
f 9/9/9 11/11/11 12/12/12
f 13/13/13 14/14/14 15/15/15
f 13/13/13 15/15/15 16/16/16
f 17/17/17 18/18/18 19/19/19
f 17/17/17 19/19/19 20/20/20
f 21/21/21 22/22/22 23/23/23
f 21/21/21 23/23/23 24/24/24