# https://github.com/mikedh/trimesh
mtllib material.mtl
usemtl material_0
v -0.24740711 -0.24820318 0.09231197
v 0.00000000 -0.24820318 -0.02415154
v -0.24740711 -0.24820318 -0.14010471
v -0.23661072 -0.24820318 0.10310753
v 0.23661072 -0.24820318 0.10310753
v -0.24429070 -0.24820318 0.09999196
v -0.24407032 -0.24820318 -0.14831765
v -0.23585738 -0.24820318 -0.15165444
v 0.00000000 -0.25182573 -0.02415154
v -0.23585738 -0.25182573 -0.15165444
v 0.23585738 -0.25182573 -0.15165444
v -0.24740711 -0.25182573 0.09231197
v -0.24740711 -0.25182573 -0.14010471
v -0.23661072 -0.25182573 0.10310753
v -0.24429070 -0.25182573 0.09999196
v -0.24407032 -0.25182573 -0.14831765
v 0.23585738 -0.24820318 -0.15165444
v 0.24740628 -0.24820318 0.09231197
v 0.24740628 -0.24820318 -0.14010471
v 0.24429070 -0.24820318 0.09999196
v 0.24407032 -0.24820318 -0.14831765
v 0.24740628 -0.25182573 0.09231197
v 0.24740628 -0.25182573 -0.14010471
v 0.23661072 -0.25182573 0.10310753
v 0.24429070 -0.25182573 0.09999196
v 0.24407032 -0.25182573 -0.14831765
v -0.24740711 -0.25182573 0.09231197
v -0.24740711 -0.24820318 0.09231197
v -0.24740711 -0.24820318 -0.14010471
v -0.24740711 -0.25182573 -0.14010471
v -0.23661072 -0.24820318 0.10310753
v -0.23661072 -0.25182573 0.10310753
v 0.23661072 -0.25182573 0.10310753
v 0.23661072 -0.24820318 0.10310753
v -0.24429070 -0.24820318 0.09999196
v -0.24429070 -0.25182573 0.09999196
v -0.24429070 -0.25182573 0.09999196
v -0.24429070 -0.24820318 0.09999196
v -0.24407032 -0.24820318 -0.14831765
v -0.24407032 -0.25182573 -0.14831765
v -0.24407032 -0.25182573 -0.14831765
v -0.24407032 -0.24820318 -0.14831765
v -0.23585738 -0.24820318 -0.15165444
v -0.23585738 -0.25182573 -0.15165444
v 0.23585738 -0.24820318 -0.15165444
v 0.23585738 -0.25182573 -0.15165444
v 0.24740628 -0.25182573 0.09231197
v 0.24740628 -0.25182573 -0.14010471
v 0.24740628 -0.24820318 -0.14010471
v 0.24740628 -0.24820318 0.09231197
v 0.24429070 -0.25182573 0.09999196
v 0.24429070 -0.24820318 0.09999196
v 0.24429070 -0.25182573 0.09999196
v 0.24429070 -0.24820318 0.09999196
v 0.24407032 -0.25182573 -0.14831765
v 0.24407032 -0.24820318 -0.14831765
v 0.24407032 -0.25182573 -0.14831765
v 0.24407032 -0.24820318 -0.14831765
vn 0.00000000 1.00000000 0.00000000
vn 0.00000000 1.00000000 0.00000000
vn 0.00000000 1.00000000 0.00000000
vn 0.00000000 1.00000000 0.00000000
vn 0.00000000 1.00000000 0.00000000
vn 0.00000000 1.00000000 0.00000000
vn 0.00000000 1.00000000 0.00000000
vn 0.00000000 1.00000000 0.00000000
vn 0.00000000 -1.00000000 0.00000000
vn 0.00000000 -1.00000000 0.00000000
vn 0.00000000 -1.00000000 0.00000000
vn 0.00000000 -1.00000000 0.00000000
vn 0.00000000 -1.00000000 0.00000000
vn 0.00000000 -1.00000000 0.00000000
vn 0.00000000 -1.00000000 0.00000000
vn 0.00000000 -1.00000000 0.00000000
vn 0.00000000 1.00000000 0.00000000
vn 0.00000000 1.00000000 0.00000000
vn 0.00000000 1.00000000 0.00000000
vn 0.00000000 1.00000000 0.00000000
vn 0.00000000 1.00000000 0.00000000
vn 0.00000000 -1.00000000 0.00000000
vn 0.00000000 -1.00000000 0.00000000
vn 0.00000000 -1.00000000 0.00000000
vn 0.00000000 -1.00000000 0.00000000
vn 0.00000000 -1.00000000 0.00000000
vn -0.99991549 0.00010000 0.01300020
vn -0.99991549 0.00000000 0.01300020
vn -0.99990477 0.00000000 -0.01380007
vn -0.99990339 0.00000000 -0.01390005
vn -0.00649986 0.00000000 0.99997888
vn -0.00649986 0.00000000 0.99997888
vn 0.00649986 0.00000000 0.99997888
vn 0.00649986 0.00000000 0.99997888
vn -0.37600685 0.00000000 0.92661688
vn -0.37600685 0.00000000 0.92661688
vn -0.92661688 0.00000000 0.37600685
vn -0.92661688 0.00000000 0.37600685
vn -0.92646331 0.00000000 -0.37638509
vn -0.92646331 0.00000000 -0.37638509
vn -0.37638509 0.00000000 -0.92646331
vn -0.37638509 0.00000000 -0.92646331
vn -0.00689984 0.00000000 -0.99997620
vn -0.00699983 0.00000000 -0.99997550
vn 0.00699983 0.00000000 -0.99997550
vn 0.00689984 0.00000000 -0.99997620
vn 0.99991549 0.00000000 0.01300020
vn 0.99990339 0.00000000 -0.01390005
vn 0.99990477 0.00000000 -0.01380007
vn 0.99991549 0.00000000 0.01300020
vn 0.37600685 0.00000000 0.92661688
vn 0.37600685 0.00000000 0.92661688
vn 0.92661688 0.00000000 0.37600685
vn 0.92661688 0.00000000 0.37600685
vn 0.92646331 0.00000000 -0.37638509
vn 0.92646331 0.00000000 -0.37638509
vn 0.37638509 0.00000000 -0.92646331
vn 0.37638509 0.00000000 -0.92646331
vt 0.71750100 0.12628000
vt 0.78683400 0.27356700
vt 0.85586500 0.12628000
vt 0.71107500 0.13270700
vt 0.71107500 0.41442800
vt 0.71293000 0.12813500
vt 0.86075500 0.12826700
vt 0.86274000 0.13315600
vt 0.78778600 0.25168500
vt 0.71188100 0.11127300
vt 0.71188100 0.39209600
vt 0.85711900 0.10439800
vt 0.71875600 0.10439800
vt 0.86354700 0.11082500
vt 0.86169000 0.10625300
vt 0.71386700 0.10638400
vt 0.86274000 0.41397800
vt 0.71750100 0.42085400
vt 0.85586500 0.42085400
vt 0.71293000 0.41899900
vt 0.86075500 0.41886800
vt 0.85711900 0.39897200
vt 0.71875600 0.39897200
vt 0.86354700 0.39254500
vt 0.86169000 0.39711700
vt 0.71386700 0.39698500
vt 0.89615300 0.20019300
vt 0.89399700 0.20019300
vt 0.89399700 0.33855600
vt 0.89615300 0.33855600
vt 0.87775300 0.08935200
vt 0.87559600 0.08935200
vt 0.87559600 0.37107200
vt 0.87775300 0.37107200
vt 0.87775300 0.08477900
vt 0.87559600 0.08477900
vt 0.89615300 0.19562000
vt 0.89399700 0.19562000
vt 0.89399700 0.34344500
vt 0.89615300 0.34344500
vt 0.89296700 0.08504300
vt 0.89081000 0.08504300
vt 0.89081000 0.08993200
vt 0.89296700 0.08993200
vt 0.89081000 0.37075500
vt 0.89296700 0.37075500
vt 0.90921100 0.20019300
vt 0.90921100 0.33855600
vt 0.91136700 0.33855600
vt 0.91136700 0.20019300
vt 0.87559600 0.37564400
vt 0.87775300 0.37564400
vt 0.90921100 0.19562000
vt 0.91136700 0.19562000
vt 0.90921100 0.34344500
vt 0.91136700 0.34344500
vt 0.89296700 0.37564400
vt 0.89081000 0.37564400
f 1/1/1 2/2/2 3/3/3
f 2/2/2 4/4/4 5/5/5
f 4/4/4 2/2/2 6/6/6
f 6/6/6 2/2/2 1/1/1
f 3/3/3 2/2/2 7/7/7
f 7/7/7 2/2/2 8/8/8
f 9/9/9 10/10/10 11/11/11
f 12/12/12 13/13/13 9/9/9
f 14/14/14 15/15/15 9/9/9
f 15/15/15 12/12/12 9/9/9
f 13/13/13 16/16/16 9/9/9
f 16/16/16 10/10/10 9/9/9
f 2/2/2 17/17/17 8/8/8
f 18/18/18 19/19/19 2/2/2
f 5/5/5 20/20/20 2/2/2
f 20/20/20 18/18/18 2/2/2
f 19/19/19 21/21/21 2/2/2
f 21/21/21 17/17/17 2/2/2
f 22/22/22 9/9/9 23/23/23
f 9/9/9 24/24/24 14/14/14
f 24/24/24 9/9/9 25/25/25
f 25/25/25 9/9/9 22/22/22
f 23/23/23 9/9/9 26/26/26
f 26/26/26 9/9/9 11/11/11
f 27/27/27 28/28/28 29/29/29
f 27/27/27 29/29/29 30/30/30
f 31/31/31 32/32/32 33/33/33
f 31/31/31 33/33/33 34/34/34
f 32/32/32 31/31/31 35/35/35
f 32/32/32 35/35/35 36/36/36
f 37/37/37 38/38/38 28/28/28
f 37/37/37 28/28/28 27/27/27
f 30/30/30 29/29/29 39/39/39
f 30/30/30 39/39/39 40/40/40
f 41/41/41 42/42/42 43/43/43
f 41/41/41 43/43/43 44/44/44
f 43/43/43 45/45/45 46/46/46
f 43/43/43 46/46/46 44/44/44
f 47/47/47 48/48/48 49/49/49
f 47/47/47 49/49/49 50/50/50
f 33/33/33 51/51/51 52/52/52
f 33/33/33 52/52/52 34/34/34
f 53/53/53 47/47/47 50/50/50
f 53/53/53 50/50/50 54/54/54
f 48/48/48 55/55/55 56/56/56
f 48/48/48 56/56/56 49/49/49
f 57/57/57 46/46/46 45/45/45
f 57/57/57 45/45/45 58/58/58