# https://github.com/mikedh/trimesh
mtllib material.mtl
usemtl material_0
v -0.40028301 -0.35879008 0.20403389
v -0.12408153 -0.35879008 0.04123092
v -0.40028301 -0.35879008 -0.12157016
v 0.14604348 -0.42293926 0.21455800
v -0.12408153 -0.42293926 0.04123092
v 0.15049111 -0.42293926 0.21010848
v 0.15211996 -0.35879008 0.20403389
v 0.15211996 -0.35879008 -0.12157016
v 0.15049111 -0.35879008 -0.12764663
v 0.14604348 -0.35879008 -0.13209426
v 0.13996701 -0.35879008 -0.13372311
v -0.38813196 -0.35879008 -0.13372311
v -0.39420654 -0.35879008 -0.13209426
v -0.39865606 -0.35879008 -0.12764663
v -0.39865606 -0.35879008 0.21010848
v -0.39420654 -0.35879008 0.21455800
v -0.38813196 -0.35879008 0.21618495
v 0.13996701 -0.35879008 0.21618495
v 0.14604348 -0.35879008 0.21455800
v 0.15049111 -0.35879008 0.21010848
v -0.39865606 -0.42293926 -0.12764663
v -0.39420654 -0.42293926 -0.13209426
v -0.38813196 -0.42293926 -0.13372311
v 0.13996701 -0.42293926 -0.13372311
v 0.14604348 -0.42293926 -0.13209426
v 0.15049111 -0.42293926 -0.12764663
v 0.15211996 -0.42293926 -0.12157016
v 0.15211996 -0.42293926 0.20403389
v 0.13996701 -0.42293926 0.21618495
v -0.38813196 -0.42293926 0.21618495
v -0.39420654 -0.42293926 0.21455800
v -0.39865606 -0.42293926 0.21010848
v -0.40028301 -0.42293926 0.20403389
v -0.40028301 -0.42293926 -0.12157016
v -0.39420654 -0.35879008 -0.13209426
v -0.39420654 -0.42293926 -0.13209426
v -0.39865606 -0.42293926 -0.12764663
v -0.39865606 -0.35879008 -0.12764663
v -0.39865606 -0.35879008 -0.12764663
v -0.39865606 -0.42293926 -0.12764663
v -0.40028301 -0.42293926 -0.12157016
v -0.40028301 -0.35879008 -0.12157016
v -0.40028301 -0.42293926 0.20403389
v -0.40028301 -0.35879008 0.20403389
v -0.38813196 -0.35879008 0.21618495
v -0.38813196 -0.42293926 0.21618495
v 0.13996701 -0.42293926 0.21618495
v 0.13996701 -0.35879008 0.21618495
v 0.15211996 -0.35879008 0.20403389
v 0.15211996 -0.42293926 0.20403389
v 0.15211996 -0.42293926 -0.12157016
v 0.15211996 -0.35879008 -0.12157016
v 0.13996701 -0.35879008 -0.13372311
v 0.13996701 -0.42293926 -0.13372311
v -0.38813196 -0.42293926 -0.13372311
v -0.38813196 -0.35879008 -0.13372311
v 0.14604348 -0.35879008 -0.13209426
v 0.14604348 -0.42293926 -0.13209426
v 0.13996701 -0.42293926 -0.13372311
v 0.13996701 -0.35879008 -0.13372311
v 0.15049111 -0.35879008 -0.12764663
v 0.15049111 -0.42293926 -0.12764663
v 0.14604348 -0.42293926 -0.13209426
v 0.14604348 -0.35879008 -0.13209426
v 0.15049111 -0.42293926 -0.12764663
v 0.15049111 -0.35879008 -0.12764663
v 0.15049111 -0.35879008 0.21010848
v 0.15049111 -0.42293926 0.21010848
v 0.14604348 -0.35879008 0.21455800
v 0.14604348 -0.42293926 0.21455800
v 0.15049111 -0.42293926 0.21010848
v 0.15049111 -0.35879008 0.21010848
v 0.13996701 -0.35879008 0.21618495
v 0.13996701 -0.42293926 0.21618495
v 0.14604348 -0.42293926 0.21455800
v 0.14604348 -0.35879008 0.21455800
v -0.39420654 -0.35879008 0.21455800
v -0.39420654 -0.42293926 0.21455800
v -0.38813196 -0.42293926 0.21618495
v -0.38813196 -0.35879008 0.21618495
v -0.39865606 -0.42293926 0.21010848
v -0.39865606 -0.35879008 0.21010848
v -0.39865606 -0.35879008 0.21010848
v -0.39865606 -0.42293926 0.21010848
v -0.39420654 -0.42293926 0.21455800
v -0.39420654 -0.35879008 0.21455800
v -0.38813196 -0.35879008 -0.13372311
v -0.38813196 -0.42293926 -0.13372311
v -0.39420654 -0.42293926 -0.13209426
v -0.39420654 -0.35879008 -0.13209426
vn 0.00000000 1.00000000 0.00000000
vn 0.00000000 1.00000000 0.00000000
vn 0.00000000 1.00000000 0.00000000
vn 0.00000000 -1.00000000 0.00000000
vn 0.00000000 -1.00000000 0.00000000
vn 0.00000000 -1.00000000 0.00000000
vn 0.00000000 1.00000000 0.00000000
vn 0.00000000 1.00000000 0.00000000
vn 0.00000000 1.00000000 0.00000000
vn 0.00000000 1.00000000 0.00000000
vn 0.00000000 1.00000000 0.00000000
vn 0.00000000 1.00000000 0.00000000
vn 0.00000000 1.00000000 0.00000000
vn 0.00000000 1.00000000 0.00000000
vn 0.00000000 1.00000000 0.00000000
vn 0.00000000 1.00000000 0.00000000
vn 0.00000000 1.00000000 0.00000000
vn 0.00000000 1.00000000 0.00000000
vn 0.00000000 1.00000000 0.00000000
vn 0.00000000 1.00000000 0.00000000
vn 0.00000000 -1.00000000 0.00000000
vn 0.00000000 -1.00000000 0.00000000
vn 0.00000000 -1.00000000 0.00000000
vn 0.00000000 -1.00000000 0.00000000
vn 0.00000000 -1.00000000 0.00000000
vn 0.00000000 -1.00000000 0.00000000
vn 0.00000000 -1.00000000 0.00000000
vn 0.00000000 -1.00000000 0.00000000
vn 0.00000000 -1.00000000 0.00000000
vn 0.00000000 -1.00000000 0.00000000
vn 0.00000000 -1.00000000 0.00000000
vn 0.00000000 -1.00000000 0.00000000
vn 0.00000000 -1.00000000 0.00000000
vn 0.00000000 -1.00000000 0.00000000
vn -0.70710678 0.00000000 -0.70710678
vn -0.70710678 0.00000000 -0.70710678
vn -0.70710678 0.00000000 -0.70710678
vn -0.70710678 0.00000000 -0.70710678
vn -0.96592886 0.00000000 -0.25880773
vn -0.96592886 0.00000000 -0.25880773
vn -0.99998800 0.00000000 -0.00489994
vn -0.99998800 0.00000000 -0.00489994
vn -0.99998800 0.00000000 0.00489994
vn -0.99998800 0.00000000 0.00489994
vn -0.00309999 0.00000000 0.99999520
vn -0.00309999 0.00000000 0.99999520
vn 0.00309999 0.00000000 0.99999520
vn 0.00309999 0.00000000 0.99999520
vn 0.99998800 0.00000000 0.00489994
vn 0.99998800 0.00000000 0.00489994
vn 0.99998800 0.00000000 -0.00489994
vn 0.99998800 0.00000000 -0.00489994
vn 0.00309999 0.00000000 -0.99999520
vn 0.00309999 0.00000000 -0.99999520
vn -0.00309999 0.00000000 -0.99999520
vn -0.00309999 0.00000000 -0.99999520
vn 0.25880773 0.00000000 -0.96592886
vn 0.25880773 0.00000000 -0.96592886
vn 0.00299999 0.00000000 -0.99999550
vn 0.00299999 0.00000000 -0.99999550
vn 0.70710678 0.00000000 -0.70710678
vn 0.70710678 0.00000000 -0.70710678
vn 0.70710678 0.00000000 -0.70710678
vn 0.70710678 0.00000000 -0.70710678
vn 0.96592886 0.00000000 -0.25880773
vn 0.96592886 0.00000000 -0.25880773
vn 0.96592886 0.00000000 0.25880773
vn 0.96592886 0.00000000 0.25880773
vn 0.70710678 0.00000000 0.70710678
vn 0.70710678 0.00000000 0.70710678
vn 0.70710678 0.00000000 0.70710678
vn 0.70710678 0.00000000 0.70710678
vn 0.00299999 0.00000000 0.99999550
vn 0.00309999 0.00000000 0.99999520
vn 0.25880773 0.00000000 0.96592886
vn 0.25880773 0.00000000 0.96592886
vn -0.25880773 0.00000000 0.96592886
vn -0.25880773 0.00000000 0.96592886
vn -0.00299999 0.00000000 0.99999550
vn -0.00299999 0.00000000 0.99999550
vn -0.96592886 0.00000000 0.25880773
vn -0.96592886 0.00000000 0.25880773
vn -0.70710678 0.00000000 0.70710678
vn -0.70710678 0.00000000 0.70710678
vn -0.70710678 0.00000000 0.70710678
vn -0.70710678 0.00000000 0.70710678
vn -0.00299999 0.00000000 -0.99999550
vn -0.00299999 0.00000000 -0.99999550
vn -0.25880773 0.00000000 -0.96592886
vn -0.25880773 0.00000000 -0.96592886
vt 0.56004100 0.45569700
vt 0.77292300 0.33019700
vt 0.56002300 0.20472800
vt 0.49211400 0.14963900
vt 0.28366400 0.28285800
vt 0.49553600 0.15307400
vt 0.98582300 0.45566600
vt 0.98580500 0.20469700
vt 0.98454900 0.20001400
vt 0.98112000 0.19658500
vt 0.97643800 0.19533100
vt 0.56938900 0.19536000
vt 0.56470500 0.19661600
vt 0.56127700 0.20004400
vt 0.56129600 0.46038000
vt 0.56472500 0.46380800
vt 0.56940800 0.46506300
vt 0.97645700 0.46503400
vt 0.98114000 0.46377800
vt 0.98456800 0.46034900
vt 0.07179300 0.41264200
vt 0.07521500 0.41607600
vt 0.07989600 0.41733900
vt 0.48694400 0.41807900
vt 0.49162900 0.41683200
vt 0.49506400 0.41341000
vt 0.49632700 0.40872800
vt 0.49678300 0.15776000
vt 0.48743300 0.14837600
vt 0.08038500 0.14763800
vt 0.07570000 0.14888500
vt 0.07226500 0.15230700
vt 0.07100200 0.15698700
vt 0.07054500 0.40795600
vt 0.50513700 0.46398100
vt 0.55458200 0.46399800
vt 0.55458400 0.45914900
vt 0.50513900 0.45913200
vt 0.50513900 0.45913200
vt 0.55458400 0.45914900
vt 0.55458600 0.45430100
vt 0.50514100 0.45428300
vt 0.55467300 0.20333200
vt 0.50522800 0.20331400
vt 0.97715200 0.19182700
vt 0.97715000 0.14238100
vt 0.57010200 0.14239300
vt 0.57010300 0.19183800
vt 0.01418000 0.42219200
vt 0.06362500 0.42220100
vt 0.06367000 0.17123200
vt 0.01422500 0.17122300
vt 0.08003100 0.42032500
vt 0.08004000 0.46977000
vt 0.48708900 0.46969600
vt 0.48707900 0.42025200
vt 0.01422700 0.16152600
vt 0.06367200 0.16153500
vt 0.06367300 0.15668700
vt 0.01422800 0.15667700
vt 0.01422600 0.16637500
vt 0.06367100 0.16638300
vt 0.06367200 0.16153500
vt 0.01422700 0.16152600
vt 0.06367100 0.16638300
vt 0.01422600 0.16637500
vt 0.01417900 0.42704000
vt 0.06362400 0.42704900
vt 0.01417800 0.43188800
vt 0.06362300 0.43189700
vt 0.06362400 0.42704900
vt 0.01417900 0.42704000
vt 0.01417700 0.43673700
vt 0.06362200 0.43674600
vt 0.06362300 0.43189700
vt 0.01417800 0.43188800
vt 0.50523100 0.19361700
vt 0.55467600 0.19363500
vt 0.55467800 0.18878700
vt 0.50523300 0.18876900
vt 0.55467500 0.19848300
vt 0.50522900 0.19846600
vt 0.50522900 0.19846600
vt 0.55467500 0.19848300
vt 0.55467600 0.19363500
vt 0.50523100 0.19361700
vt 0.50513500 0.46882900
vt 0.55458000 0.46884600
vt 0.55458200 0.46399800
vt 0.50513700 0.46398100
f 1/1/1 2/2/2 3/3/3
f 4/4/4 5/5/5 6/6/6
f 7/7/7 8/8/8 2/2/2
f 2/2/2 8/8/8 9/9/9
f 2/2/2 9/9/9 10/10/10
f 2/2/2 10/10/10 11/11/11
f 2/2/2 11/11/11 12/12/12
f 2/2/2 12/12/12 13/13/13
f 2/2/2 13/13/13 14/14/14
f 2/2/2 14/14/14 3/3/3
f 15/15/15 2/2/2 1/1/1
f 16/16/16 2/2/2 15/15/15
f 17/17/17 2/2/2 16/16/16
f 18/18/18 2/2/2 17/17/17
f 19/19/19 2/2/2 18/18/18
f 20/20/20 2/2/2 19/19/19
f 7/7/7 2/2/2 20/20/20
f 21/21/21 22/22/22 5/5/5
f 5/5/5 22/22/22 23/23/23
f 5/5/5 23/23/23 24/24/24
f 5/5/5 24/24/24 25/25/25
f 5/5/5 25/25/25 26/26/26
f 5/5/5 26/26/26 27/27/27
f 5/5/5 27/27/27 28/28/28
f 5/5/5 28/28/28 6/6/6
f 29/29/29 5/5/5 4/4/4
f 30/30/30 5/5/5 29/29/29
f 31/31/31 5/5/5 30/30/30
f 32/32/32 5/5/5 31/31/31
f 33/33/33 5/5/5 32/32/32
f 34/34/34 5/5/5 33/33/33
f 21/21/21 5/5/5 34/34/34
f 35/35/35 36/36/36 37/37/37
f 35/35/35 37/37/37 38/38/38
f 39/39/39 40/40/40 41/41/41
f 39/39/39 41/41/41 42/42/42
f 42/42/42 41/41/41 43/43/43
f 42/42/42 43/43/43 44/44/44
f 45/45/45 46/46/46 47/47/47
f 45/45/45 47/47/47 48/48/48
f 49/49/49 50/50/50 51/51/51
f 49/49/49 51/51/51 52/52/52
f 53/53/53 54/54/54 55/55/55
f 53/53/53 55/55/55 56/56/56
f 57/57/57 58/58/58 59/59/59
f 57/57/57 59/59/59 60/60/60
f 61/61/61 62/62/62 63/63/63
f 61/61/61 63/63/63 64/64/64
f 52/52/52 51/51/51 65/65/65
f 52/52/52 65/65/65 66/66/66
f 67/67/67 68/68/68 50/50/50
f 67/67/67 50/50/50 49/49/49
f 69/69/69 70/70/70 71/71/71
f 69/69/69 71/71/71 72/72/72
f 73/73/73 74/74/74 75/75/75
f 73/73/73 75/75/75 76/76/76
f 77/77/77 78/78/78 79/79/79
f 77/77/77 79/79/79 80/80/80
f 44/44/44 43/43/43 81/81/81
f 44/44/44 81/81/81 82/82/82
f 83/83/83 84/84/84 85/85/85
f 83/83/83 85/85/85 86/86/86
f 87/87/87 88/88/88 89/89/89
f 87/87/87 89/89/89 90/90/90